<svg width="20" height="20" viewBox="0 0 20 20" fill="none" xmlns="http://www.w3.org/2000/svg">
<path d="M15.8333 1.67499H5C3.995 1.67499 2.5 2.34082 2.5 4.17499V15.8417C2.5 17.6758 3.995 18.3417 5 18.3417H17.5V16.675H5.01C4.625 16.665 4.16667 16.5125 4.16667 15.8417C4.16667 15.7575 4.17417 15.6825 4.18667 15.6142C4.28 15.135 4.6725 15.0167 5.00917 15.0083H16.6667C16.6817 15.0083 16.6925 15.0008 16.7075 15H17.5V3.34165C17.5 2.42249 16.7525 1.67499 15.8333 1.67499ZM15.8333 13.3417H4.16667V4.17499C4.16667 3.50332 4.625 3.35165 5 3.34165H10.8333V9.17499L12.5 8.34165L14.1667 9.17499V3.34165H15.8333V13.3417Z" fill="white"/>
</svg>
