<svg width="15" height="15" viewBox="0 0 15 15" fill="none" xmlns="http://www.w3.org/2000/svg">
<path d="M3.125 13.75H11.875C12.5644 13.75 13.125 13.1894 13.125 12.5V3.75C13.125 3.06062 12.5644 2.5 11.875 2.5H10.625V1.25H9.375V2.5H5.625V1.25H4.375V2.5H3.125C2.43562 2.5 1.875 3.06062 1.875 3.75V12.5C1.875 13.1894 2.43562 13.75 3.125 13.75ZM6.875 11.5087L4.55813 9.19187L5.44187 8.30813L6.875 9.74125L9.55813 7.05813L10.4419 7.94187L6.875 11.5087ZM3.125 4.375H11.875V5.625H3.125V4.375Z" fill="white"/>
</svg>
