<svg width="20" height="20" viewBox="0 0 20 20" fill="none" xmlns="http://www.w3.org/2000/svg">
<path d="M17.5 5.625V17.5C17.5 18.163 17.2366 18.7989 16.7678 19.2678C16.2989 19.7366 15.663 20 15 20H5C4.33696 20 3.70107 19.7366 3.23223 19.2678C2.76339 18.7989 2.5 18.163 2.5 17.5V2.5C2.5 1.83696 2.76339 1.20107 3.23223 0.732233C3.70107 0.263392 4.33696 0 5 0L11.875 0L17.5 5.625ZM13.75 5.625C13.2527 5.625 12.7758 5.42746 12.4242 5.07583C12.0725 4.72419 11.875 4.24728 11.875 3.75V1.25H5C4.66848 1.25 4.35054 1.3817 4.11612 1.61612C3.8817 1.85054 3.75 2.16848 3.75 2.5V17.5C3.75 17.8315 3.8817 18.1495 4.11612 18.3839C4.35054 18.6183 4.66848 18.75 5 18.75H15C15.3315 18.75 15.6495 18.6183 15.8839 18.3839C16.1183 18.1495 16.25 17.8315 16.25 17.5V5.625H13.75Z" fill="white"/>
<path d="M10.8075 8.30749C10.8656 8.24928 10.9345 8.2031 11.0105 8.1716C11.0864 8.14009 11.1678 8.12387 11.25 8.12387C11.3322 8.12387 11.4136 8.14009 11.4896 8.1716C11.5655 8.2031 11.6345 8.24928 11.6925 8.30749L14.1925 10.8075C14.2507 10.8655 14.2969 10.9345 14.3284 11.0104C14.3599 11.0864 14.3761 11.1678 14.3761 11.25C14.3761 11.3322 14.3599 11.4136 14.3284 11.4895C14.2969 11.5655 14.2507 11.6344 14.1925 11.6925L11.6925 14.1925C11.5752 14.3098 11.416 14.3758 11.25 14.3758C11.084 14.3758 10.9249 14.3098 10.8075 14.1925C10.6902 14.0751 10.6242 13.916 10.6242 13.75C10.6242 13.584 10.6902 13.4248 10.8075 13.3075L12.8663 11.25L10.8075 9.19249C10.7493 9.13443 10.7031 9.06546 10.6716 8.98953C10.6401 8.9136 10.6239 8.8322 10.6239 8.74999C10.6239 8.66778 10.6401 8.58638 10.6716 8.51045C10.7031 8.43451 10.7493 8.36554 10.8075 8.30749ZM9.19252 8.30749C9.13446 8.24928 9.06549 8.2031 8.98956 8.1716C8.91363 8.14009 8.83223 8.12387 8.75002 8.12387C8.66781 8.12387 8.58641 8.14009 8.51048 8.1716C8.43454 8.2031 8.36558 8.24928 8.30752 8.30749L5.80752 10.8075C5.74931 10.8655 5.70314 10.9345 5.67163 11.0104C5.64012 11.0864 5.6239 11.1678 5.6239 11.25C5.6239 11.3322 5.64012 11.4136 5.67163 11.4895C5.70314 11.5655 5.74931 11.6344 5.80752 11.6925L8.30752 14.1925C8.42488 14.3098 8.58405 14.3758 8.75002 14.3758C8.91599 14.3758 9.07516 14.3098 9.19252 14.1925C9.30988 14.0751 9.37581 13.916 9.37581 13.75C9.37581 13.584 9.30988 13.4248 9.19252 13.3075L7.13377 11.25L9.19252 9.19249C9.25072 9.13443 9.2969 9.06546 9.32841 8.98953C9.35992 8.9136 9.37613 8.8322 9.37613 8.74999C9.37613 8.66778 9.35992 8.58638 9.32841 8.51045C9.2969 8.43451 9.25072 8.36554 9.19252 8.30749Z" fill="white"/>
</svg>
