<svg width="20" height="20" viewBox="0 0 20 20" fill="none" xmlns="http://www.w3.org/2000/svg">
<path d="M10.0001 1.66666C5.40008 1.66666 1.66675 5.39999 1.66675 9.99999C1.66675 14.6 5.40008 18.3333 10.0001 18.3333H14.1667V16.6667H10.0001C6.38341 16.6667 3.33341 13.6167 3.33341 9.99999C3.33341 6.38332 6.38341 3.33332 10.0001 3.33332C13.6167 3.33332 16.6667 6.38332 16.6667 9.99999V11.1917C16.6667 11.85 16.0751 12.5 15.4167 12.5C14.7584 12.5 14.1667 11.85 14.1667 11.1917V9.99999C14.1667 7.69999 12.3001 5.83332 10.0001 5.83332C7.70008 5.83332 5.83342 7.69999 5.83342 9.99999C5.83342 12.3 7.70008 14.1667 10.0001 14.1667C11.1501 14.1667 12.2001 13.7 12.9501 12.9417C13.4917 13.6833 14.4251 14.1667 15.4167 14.1667C17.0584 14.1667 18.3334 12.8333 18.3334 11.1917V9.99999C18.3334 5.39999 14.6001 1.66666 10.0001 1.66666ZM10.0001 12.5C8.61675 12.5 7.50008 11.3833 7.50008 9.99999C7.50008 8.61666 8.61675 7.49999 10.0001 7.49999C11.3834 7.49999 12.5001 8.61666 12.5001 9.99999C12.5001 11.3833 11.3834 12.5 10.0001 12.5Z" fill="white"/>
</svg>
