<svg width="16" height="16" viewBox="0 0 16 16" fill="none" xmlns="http://www.w3.org/2000/svg">
<path d="M8.00002 1.28572C11.0772 1.28572 13.5714 3.78001 13.5714 6.85715C13.5714 9.21143 11.9172 11.7771 8.65145 14.5817C8.46986 14.7377 8.23834 14.8234 7.99895 14.8232C7.75956 14.823 7.52819 14.7369 7.34687 14.5806L7.13087 14.3931C4.00973 11.6617 2.42859 9.15886 2.42859 6.85715C2.42859 3.78001 4.92287 1.28572 8.00002 1.28572ZM8.00002 4.71429C7.4317 4.71429 6.88665 4.94006 6.48479 5.34192C6.08292 5.74378 5.85716 6.28883 5.85716 6.85715C5.85716 7.42547 6.08292 7.97051 6.48479 8.37238C6.88665 8.77424 7.4317 9.00001 8.00002 9.00001C8.56834 9.00001 9.11338 8.77424 9.51525 8.37238C9.91711 7.97051 10.1429 7.42547 10.1429 6.85715C10.1429 6.28883 9.91711 5.74378 9.51525 5.34192C9.11338 4.94006 8.56834 4.71429 8.00002 4.71429Z" fill="white"/>
</svg>
