<svg width="16" height="16" viewBox="0 0 16 16" fill="none" xmlns="http://www.w3.org/2000/svg">
<path d="M9.828 0.722001C9.89371 0.721884 9.95879 0.734718 10.0195 0.759769C10.0803 0.784821 10.1355 0.821599 10.182 0.868001L15.132 5.818C15.2257 5.91176 15.2784 6.03892 15.2784 6.1715C15.2784 6.30408 15.2257 6.43124 15.132 6.525C14.652 7.005 14.06 7.113 13.629 7.113C13.452 7.113 13.294 7.095 13.169 7.074L10.035 10.208C10.1175 10.5404 10.171 10.8793 10.195 11.221C10.241 11.923 10.163 12.908 9.47501 13.596C9.38124 13.6897 9.25409 13.7424 9.1215 13.7424C8.98892 13.7424 8.86177 13.6897 8.768 13.596L5.939 10.768L2.757 13.95C2.562 14.145 1.538 14.852 1.343 14.657C1.148 14.462 1.855 13.437 2.05 13.243L5.232 10.061L2.404 7.232C2.31027 7.13824 2.25761 7.01108 2.25761 6.8785C2.25761 6.74592 2.31027 6.61876 2.404 6.525C3.092 5.837 4.077 5.758 4.779 5.805C5.12066 5.82894 5.4596 5.88247 5.792 5.965L8.926 2.832C8.89985 2.67972 8.88647 2.52551 8.886 2.371C8.886 1.941 8.99401 1.349 9.47501 0.868001C9.56871 0.774532 9.69565 0.722029 9.828 0.722001Z" fill="white"/>
</svg>
